<?xml version="1.0" encoding="UTF-8" standalone="no"?>
<svg
   xmlns:dc="http://purl.org/dc/elements/1.1/"
   xmlns:cc="http://creativecommons.org/ns#"
   xmlns:rdf="http://www.w3.org/1999/02/22-rdf-syntax-ns#"
   xmlns:svg="http://www.w3.org/2000/svg"
   xmlns="http://www.w3.org/2000/svg"
   version="1.1"
   x="0px"
   y="0px"
   width="1024"
   height="330"
   viewBox="0, 0, 1024, 330"
   id="svg29">
  <metadata
     id="metadata33">
    <rdf:RDF>
      <cc:Work
         rdf:about="">
        <dc:format>image/svg+xml</dc:format>
        <dc:type
           rdf:resource="http://purl.org/dc/dcmitype/StillImage" />
        <dc:title></dc:title>
      </cc:Work>
    </rdf:RDF>
  </metadata>
  <defs
     id="defs27">
    <rect
       x="4.2139918"
       y="5.0567901"
       width="1014.7292"
       height="318.57778"
       id="rect37" />
  </defs>
  <g
     aria-label="Your Logo
"
     transform="translate(9.2707819,-5.8995885)"
     id="text35"
     style="font-style:normal;font-weight:normal;font-size:192px;line-height:1.25;font-family:sans-serif;white-space:pre;shape-inside:url(#rect37);fill:#000000;fill-opacity:1;stroke:none">
    <path
       d="M 125.56234,58.397145 87.587127,186.17692 V 258.6638 H 39.345005 V 186.17692 L 2.7304707,58.397145 H 50.6015 q 11.256495,58.509035 12.617171,78.795465 4.329421,-32.03772 14.472636,-78.795465 z"
       style="font-size:253.333px"
       id="path53" />
    <path
       d="m 234.66375,152.16004 v 40.20177 q 0,22.1419 -2.22656,32.53251 -2.22656,10.26691 -9.52473,19.29685 -7.29816,8.90623 -18.80205,13.23566 -11.3802,4.20572 -26.22393,4.20572 -16.57549,0 -28.07939,-3.58724 -11.50389,-3.71093 -17.93617,-11.0091 -6.30858,-7.42186 -9.02994,-17.81247 -2.72135,-10.51431 -2.72135,-31.41923 v -42.05724 q 0,-22.88408 4.94791,-35.74864 4.94791,-12.86457 17.81248,-20.657529 12.86457,-7.792959 32.9036,-7.792959 16.8229,0 28.82158,5.071608 12.12238,4.94791 18.67836,12.98826 6.55598,8.04036 8.90624,16.5755 2.47395,8.53515 2.47395,25.97653 z m -49.97389,-12.36977 q 0,-12.61718 -1.36068,-15.83332 -1.36067,-3.33984 -5.81379,-3.33984 -4.45312,0 -5.93749,3.33984 -1.48437,3.21614 -1.48437,15.83332 v 74.09495 q 0,11.62759 1.48437,15.21482 1.48437,3.46354 5.81379,3.46354 4.45312,0 5.8138,-3.21614 1.48437,-3.21615 1.48437,-13.85415 z"
       style="font-size:253.333px"
       id="path55" />
    <path
       d="M 365.53598,94.516888 V 258.6638 H 314.6962 l 0.86589,-13.60675 q -5.19531,8.28775 -12.86457,12.49347 -7.54556,4.08203 -17.44138,4.08203 -11.2565,0 -18.67836,-3.95833 -7.42187,-3.95833 -11.0091,-10.51431 -3.46354,-6.55598 -4.32942,-13.60675 -0.86589,-7.17447 -0.86589,-28.32679 V 94.516888 h 49.97389 V 206.21596 q 0,19.17315 1.11328,22.76038 1.23698,3.58724 6.43229,3.58724 5.56639,0 6.55598,-3.71093 1.11328,-3.71094 1.11328,-23.87367 V 94.516888 Z"
       style="font-size:253.333px"
       id="path57" />
    <path
       d="m 433.44605,94.516888 -1.97917,21.523412 q 10.88541,-23.131482 31.54293,-24.492158 v 57.766848 q -13.73045,0 -20.16273,3.71093 -6.43229,3.71094 -7.91666,10.39062 -1.48437,6.55598 -1.48437,30.42964 V 258.6638 H 383.47216 V 94.516888 Z"
       style="font-size:253.333px"
       id="path59" />
    <path
       d="M 572.35863,58.397145 V 218.58573 h 31.66662 V 258.6638 H 520.28188 V 58.397145 Z"
       style="font-size:253.333px"
       id="path61" />
    <path
       d="m 728.21781,152.16004 v 40.20177 q 0,22.1419 -2.22656,32.53251 -2.22656,10.26691 -9.52472,19.29685 -7.29817,8.90623 -18.80206,13.23566 -11.38019,4.20572 -26.22392,4.20572 -16.5755,0 -28.07939,-3.58724 -11.50389,-3.71093 -17.93618,-11.0091 -6.30858,-7.42186 -9.02993,-17.81247 -2.72135,-10.51431 -2.72135,-31.41923 v -42.05724 q 0,-22.88408 4.94791,-35.74864 4.94791,-12.86457 17.81247,-20.657529 12.86457,-7.792959 32.9036,-7.792959 16.8229,0 28.82158,5.071608 12.12238,4.94791 18.67836,12.98826 6.55598,8.04036 8.90624,16.5755 2.47395,8.53515 2.47395,25.97653 z m -49.97389,-12.36977 q 0,-12.61718 -1.36067,-15.83332 -1.36068,-3.33984 -5.8138,-3.33984 -4.45312,0 -5.93749,3.33984 -1.48437,3.21614 -1.48437,15.83332 v 74.09495 q 0,11.62759 1.48437,15.21482 1.48437,3.46354 5.81379,3.46354 4.45312,0 5.8138,-3.21614 1.48437,-3.21615 1.48437,-13.85415 z"
       style="font-size:253.333px"
       id="path63" />
    <path
       d="M 858.22414,94.516888 V 220.93599 q 0,25.60543 -1.23698,33.151 -1.11328,7.42186 -8.28775,15.70961 -7.17447,8.41145 -20.03903,12.74087 -12.74087,4.45312 -32.16142,4.45312 -23.87366,0 -38.3463,-8.16405 -14.47264,-8.04036 -14.96743,-31.79033 h 48.48952 q 0,10.88541 7.91666,10.88541 5.69009,0 7.54556,-3.33984 1.85546,-3.33984 1.85546,-13.97785 v -12.36977 q -6.43228,5.81379 -13.60675,8.78254 -7.05077,2.96874 -14.84373,2.96874 -13.48305,0 -22.26559,-5.4427 -8.65885,-5.4427 -11.87499,-14.22524 -3.21614,-8.90624 -3.21614,-25.23434 v -59.62232 q 0,-23.37887 8.41145,-33.64578 8.41145,-10.266918 25.60543,-10.266918 9.40103,0 17.07029,3.834631 7.79296,3.83463 13.85415,11.503887 l 3.58724,-12.369772 z M 808.12655,138.0585 q 0,-11.2565 -1.36067,-14.34894 -1.23698,-3.09245 -5.6901,-3.09245 -4.32942,0 -6.18489,3.58724 -1.73177,3.46354 -1.73177,13.85415 v 55.16919 q 0,11.0091 1.36068,14.34894 1.36067,3.21614 5.69009,3.21614 4.94791,0 6.43229,-3.95832 1.48437,-3.95833 1.48437,-17.93618 z"
       style="font-size:253.333px"
       id="path65" />
    <path
       d="m 989.09635,152.16004 v 40.20177 q 0,22.1419 -2.22656,32.53251 -2.22656,10.26691 -9.52472,19.29685 -7.29817,8.90623 -18.80206,13.23566 -11.38019,4.20572 -26.22392,4.20572 -16.5755,0 -28.07939,-3.58724 -11.50389,-3.71093 -17.93618,-11.0091 -6.30858,-7.42186 -9.02993,-17.81247 -2.72135,-10.51431 -2.72135,-31.41923 v -42.05724 q 0,-22.88408 4.94791,-35.74864 4.94791,-12.86457 17.81247,-20.657529 12.86457,-7.792959 32.9036,-7.792959 16.8229,0 28.82158,5.071608 12.12238,4.94791 18.67836,12.98826 6.55598,8.04036 8.90624,16.5755 2.47395,8.53515 2.47395,25.97653 z m -49.97389,-12.36977 q 0,-12.61718 -1.36067,-15.83332 -1.36068,-3.33984 -5.8138,-3.33984 -4.45312,0 -5.93749,3.33984 -1.48437,3.21614 -1.48437,15.83332 v 74.09495 q 0,11.62759 1.48437,15.21482 1.48437,3.46354 5.81379,3.46354 4.45312,0 5.8138,-3.21614 1.48437,-3.21615 1.48437,-13.85415 z"
       style="font-size:253.333px"
       id="path67" />
  </g>
</svg>
